<svg width="900px" height="200px" xmlns="http://www.w3.org/2000/svg" viewBox="-170.5393798828125 -50.812451171875 841.078759765625 251.62490234375" style="background: rgba(0, 0, 0, 0);" preserveAspectRatio="xMidYMid"><defs><linearGradient id="editing-sticker-gradient" x1="0.798356568610482" y1="0.4686414610197039" x2="0.201643431389518" y2="0.5313585389802962"><stop offset="0" stop-color="#c76494"></stop><stop offset="1" stop-color="#c76494"></stop></linearGradient><filter id="editing-sticker" x="-100%" y="-100%" width="300%" height="300%"><feMorphology operator="erode" radius="1" in="SourceAlpha" result="alpha-erode"></feMorphology><feConvolveMatrix order="3,3" divisor="1" kernelMatrix="0 1 0 1 1 1 0 1 0" in="alpha-erode" result="alpha-round"></feConvolveMatrix><feMorphology operator="dilate" radius="3.5" in="alpha-round" result="dilate-shadow"></feMorphology><feGaussianBlur in="dilate-shadow" stdDeviation="1.5" result="shadow"></feGaussianBlur><feFlood flood-color="#fff" result="flood-sticker"></feFlood><feComposite operator="in" in="flood-sticker" in2="alpha-round" result="comp-sticker"></feComposite><feMorphology operator="dilate" radius="3" in="comp-sticker" result="morph-sticker"></feMorphology><feConvolveMatrix order="3,3" divisor="1" kernelMatrix="0 1 0 1 1 1 0 1 0" in="morph-sticker" result="sticker"></feConvolveMatrix><feMerge><feMergeNode in="shadow"></feMergeNode><feMergeNode in="sticker"></feMergeNode><feMergeNode in="SourceGraphic"></feMergeNode></feMerge></filter></defs><g filter="url(#editing-sticker)"><g transform="translate(-160.5203, 81.615)"><path d="M29.91 4.19L29.91 4.19L29.91 4.19Q28.89 4.19 28.01 3.88L28.01 3.88L28.01 3.88Q27.13 3.57 26.54 3.12L26.54 3.12L26.54 3.12Q25.94 2.66 25.60 2.12L25.60 2.12L25.60 2.12Q25.26 1.59 25.26 1.13L25.26 1.13L25.26 1.13Q25.26 0.74 25.52 0.17L25.52 0.17L25.52 0.17Q25.77-0.40 26.14-0.91L26.14-0.91L26.14-0.91Q26.51-1.42 26.88-1.76L26.88-1.76L26.88-1.76Q27.24-2.10 27.47-2.10L27.47-2.10L27.47-2.10Q27.75-2.10 27.81-1.90L27.81-1.90L27.81-1.90Q27.87-1.70 27.90-1.44L27.90-1.44L27.90-1.44Q27.92-1.19 27.98-0.91L27.98-0.91L27.98-0.91Q28.04-0.62 28.32-0.45L28.32-0.45L28.32-0.45Q28.94-0.11 29.82 0.11L29.82 0.11L29.82 0.11Q30.70 0.34 32.74 0.34L32.74 0.34L32.74 0.34Q35.34 0.34 37.64-0.48L37.64-0.48L37.64-0.48Q39.93-1.30 41.66-2.69L41.66-2.69L41.66-2.69Q43.39-4.08 44.38-5.95L44.38-5.95L44.38-5.95Q45.37-7.82 45.37-9.97L45.37-9.97L45.37-9.97Q45.37-12.91 43.53-14.67L43.53-14.67L43.53-14.67Q41.69-16.43 38.66-17.53L38.66-17.53L38.66-17.53Q35.63-18.63 31.75-19.31L31.75-19.31L31.75-19.31Q27.87-19.99 23.85-20.82L23.85-20.82L23.85-20.82Q19.82-21.64 15.94-22.91L15.94-22.91L15.94-22.91Q12.06-24.19 9.03-26.39L9.03-26.39L9.03-26.39Q6.00-28.60 4.16-32.06L4.16-32.06L4.16-32.06Q2.32-35.51 2.32-40.72L2.32-40.72L2.32-40.72Q2.32-46.56 4.70-51.85L4.70-51.85L4.70-51.85Q7.08-57.15 11.10-61.68L11.10-61.68L11.10-61.68Q15.12-66.21 20.33-69.84L20.33-69.84L20.33-69.84Q25.54-73.46 31.21-76.01L31.21-76.01L31.21-76.01Q36.87-78.56 42.62-79.95L42.62-79.95L42.62-79.95Q48.37-81.34 53.36-81.34L53.36-81.34L53.36-81.34Q61.40-81.34 65.62-78.48L65.62-78.48L65.62-78.48Q69.84-75.62 69.84-69.95L69.84-69.95L69.84-69.95Q69.84-67.40 68.65-65.08L68.65-65.08L68.65-65.08Q67.46-62.76 65.99-60.92L65.99-60.92L65.99-60.92Q64.51-59.08 63.18-57.86L63.18-57.86L63.18-57.86Q61.85-56.64 61.57-56.36L61.57-56.36L61.23-56.87L61.23-56.87Q61.29-56.92 62.25-57.94L62.25-57.94L62.25-57.94Q63.21-58.96 64.29-60.55L64.29-60.55L64.29-60.55Q65.36-62.13 66.27-64.06L66.27-64.06L66.27-64.06Q67.18-65.99 67.18-67.97L67.18-67.97L67.18-67.97Q67.18-72.56 63.38-74.79L63.38-74.79L63.38-74.79Q59.59-77.03 52.34-77.03L52.34-77.03L52.34-77.03Q44.86-77.03 38.40-75.28L38.40-75.28L38.40-75.28Q31.95-73.52 26.59-70.60L26.59-70.60L26.59-70.60Q21.24-67.69 17.08-63.89L17.08-63.89L17.08-63.89Q12.91-60.10 10.05-56.07L10.05-56.07L10.05-56.07Q7.19-52.05 5.69-48.09L5.69-48.09L5.69-48.09Q4.19-44.12 4.19-40.84L4.19-40.84L4.19-40.84Q4.19-36.42 6.06-33.62L6.06-33.62L6.06-33.62Q7.93-30.81 10.99-29.03L10.99-29.03L10.99-29.03Q14.05-27.24 17.93-26.28L17.93-26.28L17.93-26.28Q21.81-25.32 25.88-24.58L25.88-24.58L25.88-24.58Q29.96-23.85 33.84-23.08L33.84-23.08L33.84-23.08Q37.72-22.32 40.78-20.99L40.78-20.99L40.78-20.99Q43.84-19.65 45.71-17.47L45.71-17.47L45.71-17.47Q47.58-15.29 47.58-11.72L47.58-11.72L47.58-11.72Q47.58-8.44 46.53-6.00L46.53-6.00L46.53-6.00Q45.48-3.57 43.84-1.81L43.84-1.81L43.84-1.81Q42.20-0.06 40.19 1.10L40.19 1.10L40.19 1.10Q38.18 2.27 36.19 2.95L36.19 2.95L36.19 2.95Q34.21 3.63 32.54 3.91L32.54 3.91L32.54 3.91Q30.87 4.19 29.91 4.19ZM74.60-19.60L74.60-19.60L74.60-19.60Q74.09-19.60 73.66-20.19L73.66-20.19L73.66-20.19Q73.24-20.79 72.56-21.47L72.56-21.47L72.56-21.47Q71.88-22.15 70.83-22.74L70.83-22.74L70.83-22.74Q69.78-23.34 68.08-23.34L68.08-23.34L68.08-23.34Q65.70-23.34 63.66-22.12L63.66-22.12L63.66-22.12Q61.63-20.90 60.15-19.06L60.15-19.06L60.15-19.06Q58.68-17.22 57.86-15.04L57.86-15.04L57.86-15.04Q57.04-12.86 57.04-10.93L57.04-10.93L57.04-10.93Q57.04-7.93 58.57-6.00L58.57-6.00L58.57-6.00Q60.10-4.08 62.64-4.08L62.64-4.08L62.64-4.08Q64.63-4.08 66.13-4.84L66.13-4.84L66.13-4.84Q67.63-5.61 68.65-6.85L68.65-6.85L68.65-6.85Q68.31-8.38 68.31-10.65L68.31-10.65L68.31-10.65Q68.31-13.08 68.68-14.61L68.68-14.61L68.68-14.61Q69.04-16.14 69.58-16.99L69.58-16.99L69.58-16.99Q70.12-17.84 70.69-18.15L70.69-18.15L70.69-18.15Q71.25-18.46 71.65-18.46L71.65-18.46L71.65-18.46Q72.10-18.46 72.70-17.84L72.70-17.84L72.70-17.84Q73.29-17.22 73.29-15.63L73.29-15.63L73.29-15.63Q73.29-13.65 72.58-11.47L72.58-11.47L72.58-11.47Q71.88-9.29 70.63-7.31L70.63-7.31L70.63-7.31Q71.31-5.55 72.73-4.76L72.73-4.76L72.73-4.76Q74.14-3.96 75.96-3.96L75.96-3.96L75.96-3.96Q77.54-3.96 78.93-4.67L78.93-4.67L78.93-4.67Q80.32-5.38 81.53-6.57L81.53-6.57L81.53-6.57Q82.75-7.76 83.83-9.32L83.83-9.32L83.83-9.32Q84.90-10.88 85.81-12.52L85.81-12.52L86.15-12.29L86.15-12.29Q85.47-10.14 84.34-8.10L84.34-8.10L84.34-8.10Q83.21-6.06 81.73-4.47L81.73-4.47L81.73-4.47Q80.26-2.89 78.53-1.95L78.53-1.95L78.53-1.95Q76.80-1.02 74.94-1.02L74.94-1.02L74.94-1.02Q73.52-1.02 71.85-1.95L71.85-1.95L71.85-1.95Q70.18-2.89 69.10-5.32L69.10-5.32L69.10-5.32Q67.35-3.23 65.08-1.84L65.08-1.84L65.08-1.84Q62.81-0.45 60.21-0.45L60.21-0.45L60.21-0.45Q58.74-0.45 57.55-1.13L57.55-1.13L57.55-1.13Q56.36-1.81 55.54-2.95L55.54-2.95L55.54-2.95Q54.71-4.08 54.26-5.61L54.26-5.61L54.26-5.61Q53.81-7.14 53.81-8.84L53.81-8.84L53.81-8.84Q53.81-11.72 55.08-14.61L55.08-14.61L55.08-14.61Q56.36-17.50 58.48-19.82L58.48-19.82L58.48-19.82Q60.61-22.15 63.35-23.59L63.35-23.59L63.35-23.59Q66.10-25.04 69.10-25.04L69.10-25.04L69.10-25.04Q71.31-25.04 72.81-24.55L72.81-24.55L72.81-24.55Q74.31-24.07 75.22-23.42L75.22-23.42L75.22-23.42Q76.13-22.77 76.52-22.09L76.52-22.09L76.52-22.09Q76.92-21.41 76.92-21.01L76.92-21.01L76.92-21.01Q76.92-20.22 76.10-19.91L76.10-19.91L76.10-19.91Q75.28-19.60 74.60-19.60ZM69.84-12.06L69.84-12.06L69.84-12.06Q69.84-10.20 70.18-8.84L70.18-8.84L70.18-8.84Q71.03-10.42 71.42-12.09L71.42-12.09L71.42-12.09Q71.82-13.76 71.82-14.95L71.82-14.95L71.82-14.95Q71.82-16.37 71.31-16.37L71.31-16.37L71.31-16.37Q70.80-16.37 70.32-15.12L70.32-15.12L70.32-15.12Q69.84-13.88 69.84-12.06ZM83.15-6.40L82.47-6.85L82.47-6.85Q84.39-9.91 85.92-13.11L85.92-13.11L85.92-13.11Q87.45-16.31 88.47-19.37L88.47-19.37L88.47-19.37Q87.11-21.30 86.18-23.31L86.18-23.31L86.18-23.31Q85.24-25.32 85.24-27.47L85.24-27.47L85.24-27.47Q85.24-29.57 85.64-31.27L85.64-31.27L85.64-31.27Q86.04-32.96 86.72-34.15L86.72-34.15L86.72-34.15Q87.40-35.34 88.25-36.00L88.25-36.00L88.25-36.00Q89.10-36.65 90.00-36.65L90.00-36.65L90.00-36.65Q91.25-36.65 92.01-35.40L92.01-35.40L92.01-35.40Q92.78-34.15 92.66-32.23L92.66-32.23L92.66-32.23Q92.55-29.96 92.07-27.36L92.07-27.36L92.07-27.36Q91.59-24.75 90.68-22.03L90.68-22.03L90.68-22.03Q91.81-20.73 93.03-19.46L93.03-19.46L93.03-19.46Q94.25-18.18 95.24-16.82L95.24-16.82L95.24-16.82Q96.23-15.46 96.88-13.91L96.88-13.91L96.88-13.91Q97.54-12.35 97.54-10.54L97.54-10.54L97.54-10.54Q97.54-8.04 96.60-5.95L96.60-5.95L96.60-5.95Q95.67-3.85 94.36-2.32L94.36-2.32L94.36-2.32Q93.06-0.79 91.64 0.06L91.64 0.06L91.64 0.06Q90.23 0.91 89.21 0.91L89.21 0.91L89.21 0.91Q87.45 0.91 86.52 0L86.52 0L86.52 0Q85.58-0.91 85.58-1.98L85.58-1.98L85.58-1.98Q85.58-2.83 85.87-3.68L85.87-3.68L85.87-3.68Q86.15-4.53 86.52-5.24L86.52-5.24L86.52-5.24Q86.89-5.95 87.25-6.40L87.25-6.40L87.25-6.40Q87.62-6.85 87.79-6.85L87.79-6.85L87.79-6.85Q88.08-6.85 88.16-6.66L88.16-6.66L88.16-6.66Q88.25-6.46 88.25-6.29L88.25-6.29L88.25-6.29Q88.25-6.00 88.19-5.49L88.19-5.49L88.19-5.49Q88.13-4.98 88.13-4.64L88.13-4.64L88.13-4.64Q88.13-3.68 88.78-3.06L88.78-3.06L88.78-3.06Q89.44-2.44 90.91-2.44L90.91-2.44L90.91-2.44Q91.53-2.44 92.32-2.72L92.32-2.72L92.32-2.72Q93.12-3.00 93.85-3.63L93.85-3.63L93.85-3.63Q94.59-4.25 95.07-5.18L95.07-5.18L95.07-5.18Q95.55-6.12 95.55-7.42L95.55-7.42L95.55-7.42Q95.55-8.61 94.99-9.91L94.99-9.91L94.99-9.91Q94.42-11.21 93.51-12.57L93.51-12.57L93.51-12.57Q92.61-13.93 91.50-15.35L91.50-15.35L91.50-15.35Q90.40-16.77 89.32-18.24L89.32-18.24L89.32-18.24Q88.02-15.01 86.46-11.98L86.46-11.98L86.46-11.98Q84.90-8.95 83.15-6.40L83.15-6.40ZM86.77-30.42L86.77-30.42L86.77-30.42Q86.77-28.26 87.57-26.59L87.57-26.59L87.57-26.59Q88.36-24.92 89.66-23.34L89.66-23.34L89.66-23.34Q90.12-25.09 90.29-26.71L90.29-26.71L90.29-26.71Q90.46-28.32 90.46-29.79L90.46-29.79L90.46-29.79Q90.46-33.76 88.70-33.76L88.70-33.76L88.70-33.76Q88.19-33.76 87.48-32.99L87.48-32.99L87.48-32.99Q86.77-32.23 86.77-30.42ZM101.16-6.40L100.48-6.85L100.48-6.85Q102.41-9.91 103.94-13.11L103.94-13.11L103.94-13.11Q105.46-16.31 106.48-19.37L106.48-19.37L106.48-19.37Q105.13-21.30 104.19-23.31L104.19-23.31L104.19-23.31Q103.26-25.32 103.26-27.47L103.26-27.47L103.26-27.47Q103.26-29.57 103.65-31.27L103.65-31.27L103.65-31.27Q104.05-32.96 104.73-34.15L104.73-34.15L104.73-34.15Q105.41-35.34 106.26-36.00L106.26-36.00L106.26-36.00Q107.11-36.65 108.01-36.65L108.01-36.65L108.01-36.65Q109.26-36.65 110.02-35.40L110.02-35.40L110.02-35.40Q110.79-34.15 110.68-32.23L110.68-32.23L110.68-32.23Q110.56-29.96 110.08-27.36L110.08-27.36L110.08-27.36Q109.60-24.75 108.69-22.03L108.69-22.03L108.69-22.03Q109.83-20.73 111.04-19.46L111.04-19.46L111.04-19.46Q112.26-18.18 113.25-16.82L113.25-16.82L113.25-16.82Q114.24-15.46 114.90-13.91L114.90-13.91L114.90-13.91Q115.55-12.35 115.55-10.54L115.55-10.54L115.55-10.54Q115.55-8.04 114.61-5.95L114.61-5.95L114.61-5.95Q113.68-3.85 112.38-2.32L112.38-2.32L112.38-2.32Q111.07-0.79 109.66 0.06L109.66 0.06L109.66 0.06Q108.24 0.91 107.22 0.91L107.22 0.91L107.22 0.91Q105.46 0.91 104.53 0L104.53 0L104.53 0Q103.60-0.91 103.60-1.98L103.60-1.98L103.60-1.98Q103.60-2.83 103.88-3.68L103.88-3.68L103.88-3.68Q104.16-4.53 104.53-5.24L104.53-5.24L104.53-5.24Q104.90-5.95 105.27-6.40L105.27-6.40L105.27-6.40Q105.63-6.85 105.80-6.85L105.80-6.85L105.80-6.85Q106.09-6.85 106.17-6.66L106.17-6.66L106.17-6.66Q106.26-6.46 106.26-6.29L106.26-6.29L106.26-6.29Q106.26-6.00 106.20-5.49L106.20-5.49L106.20-5.49Q106.14-4.98 106.14-4.64L106.14-4.64L106.14-4.64Q106.14-3.68 106.80-3.06L106.80-3.06L106.80-3.06Q107.45-2.44 108.92-2.44L108.92-2.44L108.92-2.44Q109.54-2.44 110.34-2.72L110.34-2.72L110.34-2.72Q111.13-3.00 111.87-3.63L111.87-3.63L111.87-3.63Q112.60-4.25 113.08-5.18L113.08-5.18L113.08-5.18Q113.56-6.12 113.56-7.42L113.56-7.42L113.56-7.42Q113.56-8.61 113.00-9.91L113.00-9.91L113.00-9.91Q112.43-11.21 111.53-12.57L111.53-12.57L111.53-12.57Q110.62-13.93 109.51-15.35L109.51-15.35L109.51-15.35Q108.41-16.77 107.33-18.24L107.33-18.24L107.33-18.24Q106.03-15.01 104.47-11.98L104.47-11.98L104.47-11.98Q102.92-8.95 101.16-6.40L101.16-6.40ZM104.79-30.42L104.79-30.42L104.79-30.42Q104.79-28.26 105.58-26.59L105.58-26.59L105.58-26.59Q106.37-24.92 107.67-23.34L107.67-23.34L107.67-23.34Q108.13-25.09 108.30-26.71L108.30-26.71L108.30-26.71Q108.47-28.32 108.47-29.79L108.47-29.79L108.47-29.79Q108.47-33.76 106.71-33.76L106.71-33.76L106.71-33.76Q106.20-33.76 105.49-32.99L105.49-32.99L105.49-32.99Q104.79-32.23 104.79-30.42ZM186.40-22.03L187.03-22.03L187.03-22.03Q187.31-22.03 188.70-22.03L188.70-22.03L188.70-22.03Q190.09-22.03 191.62-21.95L191.62-21.95L191.62-21.95Q193.14-21.86 194.36-21.61L194.36-21.61L194.36-21.61Q195.58-21.35 195.58-20.90L195.58-20.90L195.58-20.90Q195.58-19.37 194.33-19.37L194.33-19.37L194.33-19.37Q192.01-19.48 189.97-19.48L189.97-19.48L189.97-19.48Q187.93-19.48 185.95-19.48L185.95-19.48L185.95-19.48Q185.84-19.26 185.84-18.92L185.84-18.92L185.84-18.92Q184.99-14.78 183.91-10.79L183.91-10.79L183.91-10.79Q182.84-6.80 181.11-3.65L181.11-3.65L181.11-3.65Q179.38-0.51 176.80 1.42L176.80 1.42L176.80 1.42Q174.23 3.34 170.43 3.34L170.43 3.34L170.43 3.34Q167.60 3.34 165.45 2.24L165.45 2.24L165.45 2.24Q163.29 1.13 161.71-0.51L161.71-0.51L161.71-0.51Q160.12-2.15 159.10-4.08L159.10-4.08L159.10-4.08Q158.08-6.00 157.52-7.65L157.52-7.65L158.25-7.99L158.25-7.99Q159.27-5.55 160.46-3.91L160.46-3.91L160.46-3.91Q161.65-2.27 162.96-1.27L162.96-1.27L162.96-1.27Q164.26-0.28 165.65 0.14L165.65 0.14L165.65 0.14Q167.03 0.57 168.45 0.57L168.45 0.57L168.45 0.57Q171.51 0.57 173.60-0.45L173.60-0.45L173.60-0.45Q175.70-1.47 177.26-3.82L177.26-3.82L177.26-3.82Q178.81-6.17 179.98-10.00L179.98-10.00L179.98-10.00Q181.14-13.82 182.27-19.48L182.27-19.48L182.27-19.48Q178.53-19.48 174.76-19.26L174.76-19.26L174.76-19.26Q171.00-19.03 166.69-18.58L166.69-18.58L166.69-18.58Q166.01-18.58 165.16-18.41L165.16-18.41L165.16-18.41Q164.31-18.24 164.14-18.24L164.14-18.24L164.14-18.24Q163.58-18.24 163.58-18.92L163.58-18.92L163.58-18.92Q163.58-19.60 164.40-20.48L164.40-20.48L164.40-20.48Q165.22-21.35 166.69-21.35L166.69-21.35L166.69-21.35Q167.60-21.35 169.19-21.44L169.19-21.44L169.19-21.44Q170.77-21.52 172.84-21.61L172.84-21.61L172.84-21.61Q174.91-21.69 177.43-21.78L177.43-21.78L177.43-21.78Q179.95-21.86 182.72-21.92L182.72-21.92L182.72-21.92Q183.35-24.98 183.97-28.41L183.97-28.41L183.97-28.41Q184.59-31.83 185.27-35.85L185.27-35.85L185.27-35.85Q186.74-44.52 188.87-52.62L188.87-52.62L188.87-52.62Q190.99-60.72 193.99-67.29L193.99-67.29L193.99-67.29Q192.35-67.29 190.09-67.43L190.09-67.43L190.09-67.43Q187.82-67.57 185.27-67.74L185.27-67.74L185.27-67.74Q182.72-67.91 180.00-68.05L180.00-68.05L180.00-68.05Q177.29-68.20 174.74-68.20L174.74-68.20L174.74-68.20Q167.83-68.20 161.71-66.35L161.71-66.35L161.71-66.35Q155.59-64.51 150.98-60.78L150.98-60.78L150.98-60.78Q146.36-57.04 143.67-51.40L143.67-51.40L143.67-51.40Q140.98-45.77 140.98-38.18L140.98-38.18L140.98-38.18Q140.98-35.06 141.35-32.68L141.35-32.68L141.35-32.68Q141.71-30.30 142.28-28.49L142.28-28.49L142.28-28.49Q142.85-26.68 143.58-25.43L143.58-25.43L143.58-25.43Q144.32-24.19 145-23.34L145-23.34L144.32-22.60L144.32-22.60Q143.58-23.45 142.73-24.87L142.73-24.87L142.73-24.87Q141.88-26.28 141.18-28.32L141.18-28.32L141.18-28.32Q140.47-30.36 140.02-32.99L140.02-32.99L140.02-32.99Q139.56-35.63 139.56-38.97L139.56-38.97L139.56-38.97Q139.56-46.22 142.28-52.28L142.28-52.28L142.28-52.28Q145-58.34 149.70-62.67L149.70-62.67L149.70-62.67Q154.40-67.01 160.75-69.41L160.75-69.41L160.75-69.41Q167.09-71.82 174.34-71.82L174.34-71.82L174.34-71.82Q177.29-71.82 180.17-71.62L180.17-71.62L180.17-71.62Q183.06-71.42 185.64-71.17L185.64-71.17L185.64-71.17Q188.22-70.91 190.43-70.72L190.43-70.72L190.43-70.72Q192.63-70.52 194.22-70.52L194.22-70.52L195.58-70.52L195.58-70.52Q197.05-73.35 198.72-75.64L198.72-75.64L198.72-75.64Q200.39-77.94 202.24-79.58L202.24-79.58L202.24-79.58Q204.08-81.22 206.12-82.13L206.12-82.13L206.12-82.13Q208.15-83.04 210.42-83.04L210.42-83.04L210.42-83.04Q213.65-83.04 214.95-81.73L214.95-81.73L214.95-81.73Q216.25-80.43 216.25-78.79L216.25-78.79L216.25-78.79Q216.25-76.86 214.78-74.91L214.78-74.91L214.78-74.91Q213.31-72.95 210.67-71.34L210.67-71.34L210.67-71.34Q208.04-69.72 204.39-68.62L204.39-68.62L204.39-68.62Q200.73-67.52 196.43-67.29L196.43-67.29L196.43-67.29Q194.62-62.81 193.23-57.26L193.23-57.26L193.23-57.26Q191.84-51.71 190.68-45.74L190.68-45.74L190.68-45.74Q189.52-39.76 188.50-33.67L188.50-33.67L188.50-33.67Q187.48-27.58 186.40-22.03L186.40-22.03ZM208.83-79.92L208.83-79.92L208.83-79.92Q205.27-79.92 202.58-77.37L202.58-77.37L202.58-77.37Q199.88-74.82 197.79-70.52L197.79-70.52L197.79-70.52Q202.55-70.74 205.52-71.57L205.52-71.57L205.52-71.57Q208.49-72.39 210.17-73.43L210.17-73.43L210.17-73.43Q211.84-74.48 212.40-75.62L212.40-75.62L212.40-75.62Q212.97-76.75 212.97-77.60L212.97-77.60L212.97-77.60Q212.97-78.73 211.81-79.33L211.81-79.33L211.81-79.33Q210.65-79.92 208.83-79.92ZM212.23-3.57L212.23-3.57L212.23-3.57Q213.59-3.57 214.89-4.16L214.89-4.16L214.89-4.16Q216.20-4.76 217.22-5.92L217.22-5.92L217.22-5.92Q218.24-7.08 218.83-8.78L218.83-8.78L218.83-8.78Q219.43-10.48 219.43-12.74L219.43-12.74L219.43-12.74Q219.43-14.61 218.97-16.28L218.97-16.28L218.97-16.28Q218.52-17.96 217.64-19.20L217.64-19.20L217.64-19.20Q216.76-20.45 215.38-21.18L215.38-21.18L215.38-21.18Q213.99-21.92 212.12-21.92L212.12-21.92L212.12-21.92Q210.82-21.92 209.51-21.44L209.51-21.44L209.51-21.44Q208.21-20.96 207.19-19.91L207.19-19.91L207.19-19.91Q206.17-18.86 205.55-17.25L205.55-17.25L205.55-17.25Q204.93-15.63 204.93-13.37L204.93-13.37L204.93-13.37Q204.93-11.55 205.38-9.83L205.38-9.83L205.38-9.83Q205.83-8.10 206.71-6.68L206.71-6.68L206.71-6.68Q207.59-5.27 208.98-4.42L208.98-4.42L208.98-4.42Q210.36-3.57 212.23-3.57ZM210.25-0.68L210.25-0.68L210.25-0.68Q206.51-0.68 204.13-3.14L204.13-3.14L204.13-3.14Q201.75-5.61 201.75-10.31L201.75-10.31L201.75-10.31Q201.75-13.48 202.94-16.17L202.94-16.17L202.94-16.17Q204.13-18.86 206.03-20.82L206.03-20.82L206.03-20.82Q207.93-22.77 210.25-23.85L210.25-23.85L210.25-23.85Q212.57-24.92 214.78-24.92L214.78-24.92L214.78-24.92Q218.35-24.92 220.50-22.49L220.50-22.49L220.50-22.49Q222.65-20.05 222.65-15.29L222.65-15.29L222.65-15.29Q222.65-12.12 221.55-9.46L221.55-9.46L221.55-9.46Q220.45-6.80 218.66-4.84L218.66-4.84L218.66-4.84Q216.88-2.89 214.67-1.78L214.67-1.78L214.67-1.78Q212.46-0.68 210.25-0.68ZM248.65-12.52L248.99-12.29L248.99-12.29Q248.88-11.89 248.11-10.17L248.11-10.17L248.11-10.17Q247.35-8.44 246.02-6.49L246.02-6.49L246.02-6.49Q244.69-4.53 242.85-2.97L242.85-2.97L242.85-2.97Q241.01-1.42 238.68-1.42L238.68-1.42L238.68-1.42Q235.68-1.42 233.25-3.71L233.25-3.71L233.25-3.71Q230.81-6.00 229.08-10.22L229.08-10.22L229.08-10.22Q227.36-14.44 226.42-20.45L226.42-20.45L226.42-20.45Q225.49-26.45 225.49-33.87L225.49-33.87L225.49-33.87Q225.49-37.95 225.77-42.45L225.77-42.45L225.77-42.45Q226.05-46.96 226.68-51.32L226.68-51.32L226.68-51.32Q227.30-55.68 228.23-59.64L228.23-59.64L228.23-59.64Q229.17-63.61 230.47-66.61L230.47-66.61L230.47-66.61Q231.77-69.61 233.50-71.40L233.50-71.40L233.50-71.40Q235.23-73.18 237.32-73.18L237.32-73.18L237.32-73.18Q240.44-73.18 241.88-69.38L241.88-69.38L241.88-69.38Q243.33-65.59 243.33-57.66L243.33-57.66L243.33-57.66Q243.33-53.02 242.65-47.27L242.65-47.27L242.65-47.27Q241.97-41.52 240.33-35.51L240.33-35.51L240.33-35.51Q238.17-27.92 235.82-22.57L235.82-22.57L235.82-22.57Q233.47-17.22 231.83-14.05L231.83-14.05L231.83-14.05Q232.45-11.84 233.22-10.03L233.22-10.03L233.22-10.03Q233.98-8.21 234.95-6.88L234.95-6.88L234.95-6.88Q235.91-5.55 237.04-4.81L237.04-4.81L237.04-4.81Q238.17-4.08 239.53-4.08L239.53-4.08L239.53-4.08Q241.23-4.08 242.71-5.10L242.71-5.10L242.71-5.10Q244.18-6.12 245.34-7.48L245.34-7.48L245.34-7.48Q246.50-8.84 247.35-10.25L247.35-10.25L247.35-10.25Q248.20-11.67 248.65-12.52L248.65-12.52ZM228.94-37.84L228.94-37.84L228.94-37.84Q228.94-35.46 229.08-32.71L229.08-32.71L229.08-32.71Q229.22-29.96 229.51-27.13L229.51-27.13L229.51-27.13Q229.79-24.30 230.22-21.47L230.22-21.47L230.22-21.47Q230.64-18.63 231.26-16.03L231.26-16.03L231.26-16.03Q232.45-18.52 234.07-22.43L234.07-22.43L234.07-22.43Q235.68-26.34 237.18-31.24L237.18-31.24L237.18-31.24Q238.68-36.14 239.73-41.86L239.73-41.86L239.73-41.86Q240.78-47.58 240.78-53.70L240.78-53.70L240.78-53.70Q240.78-57.55 240.47-60.75L240.47-60.75L240.47-60.75Q240.16-63.95 239.53-66.24L239.53-66.24L239.53-66.24Q238.91-68.54 237.98-69.81L237.98-69.81L237.98-69.81Q237.04-71.08 235.79-71.08L235.79-71.08L235.79-71.08Q234.61-71.08 233.64-69.41L233.64-69.41L233.64-69.41Q232.68-67.74 231.92-65.02L231.92-65.02L231.92-65.02Q231.15-62.30 230.58-58.79L230.58-58.79L230.58-58.79Q230.02-55.28 229.65-51.60L229.65-51.60L229.65-51.60Q229.28-47.92 229.11-44.32L229.11-44.32L229.11-44.32Q228.94-40.72 228.94-37.84ZM261.79-24.47L262.36-24.47L262.36-24.47Q262.19-26.11 262.16-27.87L262.16-27.87L262.16-27.87Q262.13-29.62 262.13-31.55L262.13-31.55L262.13-31.55Q262.13-35.63 262.33-40.13L262.33-40.13L262.33-40.13Q262.53-44.63 262.95-48.99L262.95-48.99L262.95-48.99Q263.38-53.36 264.00-57.32L264.00-57.32L264.00-57.32Q264.63-61.29 265.53-64.29L265.53-64.29L265.53-64.29Q266.44-67.29 267.57-69.07L267.57-69.07L267.57-69.07Q268.70-70.86 270.12-70.86L270.12-70.86L270.12-70.86Q272.27-70.86 273.29-67.06L273.29-67.06L273.29-67.06Q274.31-63.27 274.31-55.34L274.31-55.34L274.31-55.34Q274.31-50.69 273.72-44.94L273.72-44.94L273.72-44.94Q273.12-39.20 271.65-33.19L271.65-33.19L271.65-33.19Q270.40-28.04 269.30-24.16L269.30-24.16L269.30-24.16Q268.19-20.28 267.23-17.39L267.23-17.39L267.23-17.39Q267.74-14.67 268.50-12.23L268.50-12.23L268.50-12.23Q269.27-9.80 270.23-7.99L270.23-7.99L270.23-7.99Q271.20-6.17 272.38-5.13L272.38-5.13L272.38-5.13Q273.57-4.08 274.99-4.08L274.99-4.08L274.99-4.08Q276.18-4.08 277.37-5.04L277.37-5.04L277.37-5.04Q278.56-6.00 279.61-7.31L279.61-7.31L279.61-7.31Q280.65-8.61 281.48-9.97L281.48-9.97L281.48-9.97Q282.30-11.33 282.75-12.18L282.75-12.18L283.26-11.95L283.26-11.95Q283.26-11.95 282.98-11.16L282.98-11.16L282.98-11.16Q282.69-10.37 282.13-9.15L282.13-9.15L282.13-9.15Q281.56-7.93 280.74-6.51L280.74-6.51L280.74-6.51Q279.92-5.10 278.90-3.88L278.90-3.88L278.90-3.88Q277.88-2.66 276.63-1.84L276.63-1.84L276.63-1.84Q275.39-1.02 273.97-1.02L273.97-1.02L273.97-1.02Q270.91-1.02 268.59-3.63L268.59-3.63L268.59-3.63Q266.27-6.23 264.68-11.16L264.68-11.16L264.68-11.16Q263.89-9.35 262.70-7.62L262.70-7.62L262.70-7.62Q261.51-5.89 260.04-4.56L260.04-4.56L260.04-4.56Q258.56-3.23 256.78-2.44L256.78-2.44L256.78-2.44Q255.00-1.64 253.07-1.64L253.07-1.64L253.07-1.64Q251.60-1.64 250.27-2.15L250.27-2.15L250.27-2.15Q248.94-2.66 247.97-3.65L247.97-3.65L247.97-3.65Q247.01-4.64 246.44-6.00L246.44-6.00L246.44-6.00Q245.88-7.36 245.88-9.06L245.88-9.06L245.88-9.06Q245.88-11.95 247.18-14.70L247.18-14.70L247.18-14.70Q248.48-17.45 250.69-19.63L250.69-19.63L250.69-19.63Q252.90-21.81 255.76-23.14L255.76-23.14L255.76-23.14Q258.62-24.47 261.79-24.47L261.79-24.47ZM269.10-68.20L269.10-68.20L269.10-68.20Q268.48-68.20 268.00-66.58L268.00-66.58L268.00-66.58Q267.51-64.97 267.12-62.30L267.12-62.30L267.12-62.30Q266.72-59.64 266.44-56.19L266.44-56.19L266.44-56.19Q266.15-52.73 265.96-49.11L265.96-49.11L265.96-49.11Q265.76-45.48 265.67-41.94L265.67-41.94L265.67-41.94Q265.59-38.40 265.59-35.51L265.59-35.51L265.59-35.51Q265.59-32.17 265.87-28.24L265.87-28.24L265.87-28.24Q266.15-24.30 266.78-20.39L266.78-20.39L266.78-20.39Q267.63-23.11 268.53-26.54L268.53-26.54L268.53-26.54Q269.44-29.96 270.15-33.90L270.15-33.90L270.15-33.90Q270.86-37.84 271.31-42.23L271.31-42.23L271.31-42.23Q271.76-46.62 271.76-51.37L271.76-51.37L271.76-51.37Q271.76-55.28 271.59-58.40L271.59-58.40L271.59-58.40Q271.42-61.51 271.11-63.69L271.11-63.69L271.11-63.69Q270.80-65.87 270.29-67.03L270.29-67.03L270.29-67.03Q269.78-68.20 269.10-68.20ZM255.28-5.10L255.28-5.10L255.28-5.10Q257.04-5.10 258.39-5.86L258.39-5.86L258.39-5.86Q259.75-6.63 260.83-7.79L260.83-7.79L260.83-7.79Q261.91-8.95 262.70-10.37L262.70-10.37L262.70-10.37Q263.49-11.78 264.12-13.08L264.12-13.08L264.12-13.08Q263.55-15.12 263.21-17.30L263.21-17.30L263.21-17.30Q262.87-19.48 262.59-21.92L262.59-21.92L262.59-21.92Q261.74-22.26 260.72-22.26L260.72-22.26L260.72-22.26Q257.77-22.26 255.65-21.33L255.65-21.33L255.65-21.33Q253.52-20.39 252.16-18.92L252.16-18.92L252.16-18.92Q250.80-17.45 250.15-15.63L250.15-15.63L250.15-15.63Q249.50-13.82 249.50-12.06L249.50-12.06L249.50-12.06Q249.50-9.06 251.12-7.08L251.12-7.08L251.12-7.08Q252.73-5.10 255.28-5.10ZM297.14-27.98L297.14-27.98L297.14-27.98Q297.87-27.81 297.87-27.02L297.87-27.02L297.87-27.02Q297.87-26.79 297.73-26.42L297.73-26.42L297.73-26.42Q297.59-26.05 297.39-25.69L297.39-25.69L297.39-25.69Q297.19-25.32 296.97-25.06L296.97-25.06L296.97-25.06Q296.74-24.81 296.57-24.81L296.57-24.81L296.57-24.81Q296.29-24.81 295.89-25.01L295.89-25.01L295.89-25.01Q295.49-25.21 294.76-25.46L294.76-25.46L294.76-25.46Q294.02-25.71 292.83-25.91L292.83-25.91L292.83-25.91Q291.64-26.11 289.72-26.11L289.72-26.11L289.72-26.11Q287.00-26.11 285.19-25.09L285.19-25.09L285.19-25.09Q283.37-24.07 283.37-22.26L283.37-22.26L283.37-22.26Q283.37-20.96 284.48-20.08L284.48-20.08L284.48-20.08Q285.58-19.20 287.08-18.69L287.08-18.69L287.08-18.69Q288.58-18.18 290.14-17.96L290.14-17.96L290.14-17.96Q291.70-17.73 292.55-17.73L292.55-17.73L292.55-17.73Q293.17-17.73 293.37-17.53L293.37-17.53L293.37-17.53Q293.57-17.33 293.57-17.16L293.57-17.16L293.57-17.16Q293.57-16.71 293.20-16.62L293.20-16.62L293.20-16.62Q292.83-16.54 292.27-16.37L292.27-16.37L292.27-16.37Q290.79-15.86 289.26-15.09L289.26-15.09L289.26-15.09Q287.73-14.33 286.46-13.28L286.46-13.28L286.46-13.28Q285.19-12.23 284.39-10.93L284.39-10.93L284.39-10.93Q283.60-9.63 283.60-8.10L283.60-8.10L283.60-8.10Q283.60-5.55 285.67-3.88L285.67-3.88L285.67-3.88Q287.73-2.21 291.47-2.21L291.47-2.21L291.47-2.21Q295.72-2.21 298.55-3.48L298.55-3.48L298.55-3.48Q301.38-4.76 303.23-6.46L303.23-6.46L303.23-6.46Q305.07-8.16 306.09-9.88L306.09-9.88L306.09-9.88Q307.11-11.61 307.62-12.52L307.62-12.52L307.96-12.29L307.96-12.29Q306.99-9.52 305.49-7.14L305.49-7.14L305.49-7.14Q303.99-4.76 301.87-3.03L301.87-3.03L301.87-3.03Q299.74-1.30 296.91-0.31L296.91-0.31L296.91-0.31Q294.08 0.68 290.45 0.68L290.45 0.68L290.45 0.68Q288.24 0.68 286.38 0.14L286.38 0.14L286.38 0.14Q284.51-0.40 283.15-1.36L283.15-1.36L283.15-1.36Q281.79-2.32 281.05-3.74L281.05-3.74L281.05-3.74Q280.31-5.15 280.31-6.97L280.31-6.97L280.31-6.97Q280.31-9.06 281.28-10.59L281.28-10.59L281.28-10.59Q282.24-12.12 283.49-13.11L283.49-13.11L283.49-13.11Q284.73-14.10 285.95-14.64L285.95-14.64L285.95-14.64Q287.17-15.18 287.68-15.41L287.68-15.41L287.68-15.41Q285.92-15.69 284.56-16.37L284.56-16.37L284.56-16.37Q283.43-16.99 282.47-18.10L282.47-18.10L282.47-18.10Q281.50-19.20 281.50-21.13L281.50-21.13L281.50-21.13Q281.50-22.88 282.35-24.33L282.35-24.33L282.35-24.33Q283.20-25.77 284.65-26.73L284.65-26.73L284.65-26.73Q286.09-27.70 287.99-28.24L287.99-28.24L287.99-28.24Q289.89-28.77 292.04-28.77L292.04-28.77L292.04-28.77Q293.29-28.77 294.56-28.60L294.56-28.60L294.56-28.60Q295.83-28.43 297.14-27.98ZM317.07-23.90L317.07-23.90L317.07-23.90Q318.49-23.90 319.34-23.31L319.34-23.31L319.34-23.31Q320.19-22.71 320.61-21.89L320.61-21.89L320.61-21.89Q321.04-21.07 321.15-20.22L321.15-20.22L321.15-20.22Q321.27-19.37 321.27-18.80L321.27-18.80L321.27-18.80Q321.27-18.13 321.10-16.65L321.10-16.65L321.10-16.65Q320.93-15.18 320.76-13.59L320.76-13.59L320.76-13.59Q320.59-12.01 320.42-10.65L320.42-10.65L320.42-10.65Q320.25-9.29 320.25-8.84L320.25-8.84L320.25-8.84Q320.25-7.70 320.42-6.77L320.42-6.77L320.42-6.77Q320.59-5.83 321.04-5.10L321.04-5.10L321.04-5.10Q321.49-4.36 322.29-3.96L322.29-3.96L322.29-3.96Q323.08-3.57 324.38-3.57L324.38-3.57L324.38-3.57Q326.76-3.57 329.37-5.95L329.37-5.95L329.37-5.95Q331.97-8.33 334.24-12.52L334.24-12.52L334.58-12.29L334.58-12.29Q333.95-10.20 332.65-8.01L332.65-8.01L332.65-8.01Q331.35-5.83 329.65-4.02L329.65-4.02L329.65-4.02Q327.95-2.21 326.02-1.05L326.02-1.05L326.02-1.05Q324.10 0.11 322.29 0.11L322.29 0.11L322.29 0.11Q320.76 0.11 319.82-0.54L319.82-0.54L319.82-0.54Q318.89-1.19 318.38-2.18L318.38-2.18L318.38-2.18Q317.87-3.17 317.70-4.33L317.70-4.33L317.70-4.33Q317.53-5.49 317.53-6.51L317.53-6.51L317.53-6.51Q317.53-7.76 317.75-9.43L317.75-9.43L317.75-9.43Q317.98-11.10 318.24-12.77L318.24-12.77L318.24-12.77Q318.49-14.44 318.72-15.92L318.72-15.92L318.72-15.92Q318.94-17.39 318.94-18.24L318.94-18.24L318.94-18.24Q318.94-18.97 318.69-19.43L318.69-19.43L318.69-19.43Q318.43-19.88 318.04-20.14L318.04-20.14L318.04-20.14Q317.64-20.39 317.24-20.45L317.24-20.45L317.24-20.45Q316.85-20.50 316.62-20.50L316.62-20.50L316.62-20.50Q316.00-20.50 315.01-20.33L315.01-20.33L315.01-20.33Q314.02-20.16 312.20-20.16L312.20-20.16L312.20-20.16Q311.69-20.16 311.18-20.22L311.18-20.22L311.18-20.22Q310.67-20.28 310.11-20.39L310.11-20.39L310.11-20.39Q309.94-18.18 309.40-16.09L309.40-16.09L309.40-16.09Q308.86-13.99 308.21-12.23L308.21-12.23L308.21-12.23Q307.56-10.48 306.88-9.20L306.88-9.20L306.88-9.20Q306.20-7.93 305.75-7.42L305.75-7.42L305.75-7.42Q305.01-7.42 305.01-8.10L305.01-8.10L305.01-8.10Q305.07-8.44 305.60-9.49L305.60-9.49L305.60-9.49Q306.14-10.54 306.79-12.18L306.79-12.18L306.79-12.18Q307.45-13.82 308.04-16.09L308.04-16.09L308.04-16.09Q308.63-18.35 308.75-21.13L308.75-21.13L308.75-21.13Q306.09-22.66 306.09-26.56L306.09-26.56L306.09-26.56Q306.09-27.64 306.51-28.38L306.51-28.38L306.51-28.38Q306.94-29.11 307.79-29.11L307.79-29.11L307.79-29.11Q309.03-29.11 309.57-27.67L309.57-27.67L309.57-27.67Q310.11-26.22 310.22-23.79L310.22-23.79L310.22-23.79Q310.62-23.68 310.99-23.62L310.99-23.62L310.99-23.62Q311.35-23.56 311.86-23.56L311.86-23.56L311.86-23.56Q313.34-23.56 314.61-23.73L314.61-23.73L314.61-23.73Q315.88-23.90 317.07-23.90ZM308.41-25.26L308.41-25.26L308.41-25.26Q308.41-25.04 308.63-24.81L308.63-24.81L308.63-24.81Q308.58-25.09 308.55-25.38L308.55-25.38L308.55-25.38Q308.52-25.66 308.46-25.83L308.46-25.83L308.46-25.83Q308.41-26.05 308.41-26.22L308.41-26.22L308.41-26.22Q308.24-26.22 308.13-26.05L308.13-26.05L308.13-26.05Q308.01-25.88 308.41-25.26ZM380.74 4.19L380.74 4.19L380.74 4.19Q379.72 4.19 378.84 3.88L378.84 3.88L378.84 3.88Q377.96 3.57 377.37 3.12L377.37 3.12L377.37 3.12Q376.77 2.66 376.43 2.12L376.43 2.12L376.43 2.12Q376.09 1.59 376.09 1.13L376.09 1.13L376.09 1.13Q376.09 0.74 376.35 0.17L376.35 0.17L376.35 0.17Q376.60-0.40 376.97-0.91L376.97-0.91L376.97-0.91Q377.34-1.42 377.71-1.76L377.71-1.76L377.71-1.76Q378.08-2.10 378.30-2.10L378.30-2.10L378.30-2.10Q378.59-2.10 378.64-1.90L378.64-1.90L378.64-1.90Q378.70-1.70 378.73-1.44L378.73-1.44L378.73-1.44Q378.76-1.19 378.81-0.91L378.81-0.91L378.81-0.91Q378.87-0.62 379.15-0.45L379.15-0.45L379.15-0.45Q379.78-0.11 380.65 0.11L380.65 0.11L380.65 0.11Q381.53 0.34 383.57 0.34L383.57 0.34L383.57 0.34Q386.18 0.34 388.47-0.48L388.47-0.48L388.47-0.48Q390.76-1.30 392.49-2.69L392.49-2.69L392.49-2.69Q394.22-4.08 395.21-5.95L395.21-5.95L395.21-5.95Q396.20-7.82 396.20-9.97L396.20-9.97L396.20-9.97Q396.20-12.91 394.36-14.67L394.36-14.67L394.36-14.67Q392.52-16.43 389.49-17.53L389.49-17.53L389.49-17.53Q386.46-18.63 382.58-19.31L382.58-19.31L382.58-19.31Q378.70-19.99 374.68-20.82L374.68-20.82L374.68-20.82Q370.66-21.64 366.78-22.91L366.78-22.91L366.78-22.91Q362.90-24.19 359.87-26.39L359.87-26.39L359.87-26.39Q356.84-28.60 355.00-32.06L355.00-32.06L355.00-32.06Q353.15-35.51 353.15-40.72L353.15-40.72L353.15-40.72Q353.15-46.56 355.53-51.85L355.53-51.85L355.53-51.85Q357.91-57.15 361.93-61.68L361.93-61.68L361.93-61.68Q365.96-66.21 371.17-69.84L371.17-69.84L371.17-69.84Q376.38-73.46 382.04-76.01L382.04-76.01L382.04-76.01Q387.71-78.56 393.45-79.95L393.45-79.95L393.45-79.95Q399.20-81.34 404.19-81.34L404.19-81.34L404.19-81.34Q412.23-81.34 416.45-78.48L416.45-78.48L416.45-78.48Q420.67-75.62 420.67-69.95L420.67-69.95L420.67-69.95Q420.67-67.40 419.48-65.08L419.48-65.08L419.48-65.08Q418.29-62.76 416.82-60.92L416.82-60.92L416.82-60.92Q415.35-59.08 414.01-57.86L414.01-57.86L414.01-57.86Q412.68-56.64 412.40-56.36L412.40-56.36L412.06-56.87L412.06-56.87Q412.12-56.92 413.08-57.94L413.08-57.94L413.08-57.94Q414.04-58.96 415.12-60.55L415.12-60.55L415.12-60.55Q416.20-62.13 417.10-64.06L417.10-64.06L417.10-64.06Q418.01-65.99 418.01-67.97L418.01-67.97L418.01-67.97Q418.01-72.56 414.21-74.79L414.21-74.79L414.21-74.79Q410.42-77.03 403.17-77.03L403.17-77.03L403.17-77.03Q395.69-77.03 389.23-75.28L389.23-75.28L389.23-75.28Q382.78-73.52 377.42-70.60L377.42-70.60L377.42-70.60Q372.07-67.69 367.91-63.89L367.91-63.89L367.91-63.89Q363.75-60.10 360.89-56.07L360.89-56.07L360.89-56.07Q358.03-52.05 356.52-48.09L356.52-48.09L356.52-48.09Q355.02-44.12 355.02-40.84L355.02-40.84L355.02-40.84Q355.02-36.42 356.89-33.62L356.89-33.62L356.89-33.62Q358.76-30.81 361.82-29.03L361.82-29.03L361.82-29.03Q364.88-27.24 368.76-26.28L368.76-26.28L368.76-26.28Q372.64-25.32 376.72-24.58L376.72-24.58L376.72-24.58Q380.79-23.85 384.67-23.08L384.67-23.08L384.67-23.08Q388.55-22.32 391.61-20.99L391.61-20.99L391.61-20.99Q394.67-19.65 396.54-17.47L396.54-17.47L396.54-17.47Q398.41-15.29 398.41-11.72L398.41-11.72L398.41-11.72Q398.41-8.44 397.36-6.00L397.36-6.00L397.36-6.00Q396.31-3.57 394.67-1.81L394.67-1.81L394.67-1.81Q393.03-0.06 391.02 1.10L391.02 1.10L391.02 1.10Q389.01 2.27 387.03 2.95L387.03 2.95L387.03 2.95Q385.04 3.63 383.37 3.91L383.37 3.91L383.37 3.91Q381.70 4.19 380.74 4.19ZM426.11-12.52L426.45-12.29L426.45-12.29Q426.05-11.16 425.20-9.23L425.20-9.23L425.20-9.23Q424.35-7.31 422.91-5.47L422.91-5.47L422.91-5.47Q421.46-3.63 419.40-2.32L419.40-2.32L419.40-2.32Q417.33-1.02 414.61-1.13L414.61-1.13L414.61-1.13Q412.17-1.30 410.53-2.55L410.53-2.55L410.53-2.55Q408.89-3.79 407.87-6.37L407.87-6.37L407.87-6.37Q406.85-8.95 406.40-12.89L406.40-12.89L406.40-12.89Q405.94-16.82 405.94-22.37L405.94-22.37L405.94-22.37Q405.94-27.70 406.23-31.97L406.23-31.97L406.23-31.97Q406.51-36.25 406.96-39.54L406.96-39.54L406.96-39.54Q404.36-39.42 402.40-39.42L402.40-39.42L402.40-39.42Q400.45-39.42 399.66-39.42L399.66-39.42L399.66-39.42Q398.01-39.42 396.40-39.65L396.40-39.65L396.40-39.65Q394.79-39.88 393.37-40.44L393.37-40.44L393.37-40.44Q391.95-41.01 390.76-41.94L390.76-41.94L390.76-41.94Q389.57-42.88 388.78-44.29L388.78-44.29L389.01-44.80L389.01-44.80Q389.06-44.69 389.55-44.26L389.55-44.26L389.55-44.26Q390.03-43.84 391.27-43.39L391.27-43.39L391.27-43.39Q392.52-42.93 394.67-42.57L394.67-42.57L394.67-42.57Q396.82-42.20 400.22-42.20L400.22-42.20L407.30-42.20L407.30-42.20Q408.21-47.29 409.14-49.82L409.14-49.82L409.14-49.82Q410.08-52.34 410.42-53.02L410.42-53.02L410.42-53.02Q410.87-53.98 411.75-54.66L411.75-54.66L411.75-54.66Q412.63-55.34 413.25-55.34L413.25-55.34L413.25-55.34Q414.44-55.34 415.18-53.07L415.18-53.07L415.18-53.07Q415.91-50.81 415.91-46.05L415.91-46.05L415.91-46.05Q415.91-45.20 415.86-44.26L415.86-44.26L415.86-44.26Q415.80-43.33 415.80-42.37L415.80-42.37L415.80-42.37Q418.52-42.42 420.98-42.48L420.98-42.48L420.98-42.48Q423.45-42.54 425.40-42.59L425.40-42.59L425.40-42.59Q427.35-42.65 428.68-42.71L428.68-42.71L428.68-42.71Q430.02-42.76 430.41-42.82L430.41-42.82L430.41-42.82Q430.70-42.82 431.38-42.88L431.38-42.88L431.38-42.88Q432.05-42.93 432.28-42.93L432.28-42.93L432.28-42.93Q433.19-42.93 433.19-42.37L433.19-42.37L433.19-42.37Q433.19-41.57 432.71-40.92L432.71-40.92L432.71-40.92Q432.22-40.27 430.75-40.16L430.75-40.16L430.75-40.16Q430.47-40.10 429.08-40.07L429.08-40.07L429.08-40.07Q427.69-40.04 425.60-39.99L425.60-39.99L425.60-39.99Q423.50-39.93 420.90-39.85L420.90-39.85L420.90-39.85Q418.29-39.76 415.57-39.65L415.57-39.65L415.57-39.65Q415.01-34.83 413.53-29.14L413.53-29.14L413.53-29.14Q412.06-23.45 409.40-16.94L409.40-16.94L409.40-16.94Q409.63-13.20 410.05-10.71L410.05-10.71L410.05-10.71Q410.47-8.21 411.21-6.71L411.21-6.71L411.21-6.71Q411.95-5.21 413.05-4.59L413.05-4.59L413.05-4.59Q414.16-3.96 415.69-3.96L415.69-3.96L415.69-3.96Q417.33-3.96 418.74-4.59L418.74-4.59L418.74-4.59Q420.16-5.21 421.32-6.15L421.32-6.15L421.32-6.15Q422.48-7.08 423.36-8.18L423.36-8.18L423.36-8.18Q424.24-9.29 424.83-10.25L424.83-10.25L424.83-10.25Q425.43-11.21 425.74-11.84L425.74-11.84L425.74-11.84Q426.05-12.46 426.11-12.52L426.11-12.52ZM413.36-39.65L413.36-39.65L413.36-39.65Q412.40-39.65 411.49-39.59L411.49-39.59L411.49-39.59Q410.59-39.54 409.63-39.54L409.63-39.54L409.63-39.54Q409.46-36.31 409.37-32.91L409.37-32.91L409.37-32.91Q409.29-29.51 409.29-26.45L409.29-26.45L409.29-20.05L409.29-20.05Q410.93-25.21 411.98-30.08L411.98-30.08L411.98-30.08Q413.02-34.95 413.36-39.65ZM409.85-42.20L409.85-42.20L409.85-42.20Q410.76-42.20 411.69-42.28L411.69-42.28L411.69-42.28Q412.63-42.37 413.59-42.37L413.59-42.37L413.59-44.29L413.59-44.29Q413.59-47.13 413.42-48.82L413.42-48.82L413.42-48.82Q413.25-50.52 413.05-51.46L413.05-51.46L413.05-51.46Q412.85-52.39 412.60-52.70L412.60-52.70L412.60-52.70Q412.34-53.02 412.17-53.02L412.17-53.02L412.17-53.02Q411.72-53.02 411.38-52.17L411.38-52.17L411.38-52.17Q411.04-51.32 410.76-49.87L410.76-49.87L410.76-49.87Q410.47-48.43 410.25-46.45L410.25-46.45L410.25-46.45Q410.02-44.46 409.85-42.20ZM435.74-23.90L435.74-23.90L435.74-23.90Q437.15-23.90 438.00-23.31L438.00-23.31L438.00-23.31Q438.85-22.71 439.28-21.89L439.28-21.89L439.28-21.89Q439.70-21.07 439.81-20.22L439.81-20.22L439.81-20.22Q439.93-19.37 439.93-18.80L439.93-18.80L439.93-18.80Q439.93-18.13 439.76-16.65L439.76-16.65L439.76-16.65Q439.59-15.18 439.42-13.59L439.42-13.59L439.42-13.59Q439.25-12.01 439.08-10.65L439.08-10.65L439.08-10.65Q438.91-9.29 438.91-8.84L438.91-8.84L438.91-8.84Q438.91-7.70 439.08-6.77L439.08-6.77L439.08-6.77Q439.25-5.83 439.70-5.10L439.70-5.10L439.70-5.10Q440.15-4.36 440.95-3.96L440.95-3.96L440.95-3.96Q441.74-3.57 443.04-3.57L443.04-3.57L443.04-3.57Q445.42-3.57 448.03-5.95L448.03-5.95L448.03-5.95Q450.63-8.33 452.90-12.52L452.90-12.52L453.24-12.29L453.24-12.29Q452.62-10.20 451.31-8.01L451.31-8.01L451.31-8.01Q450.01-5.83 448.31-4.02L448.31-4.02L448.31-4.02Q446.61-2.21 444.69-1.05L444.69-1.05L444.69-1.05Q442.76 0.11 440.95 0.11L440.95 0.11L440.95 0.11Q439.42 0.11 438.48-0.54L438.48-0.54L438.48-0.54Q437.55-1.19 437.04-2.18L437.04-2.18L437.04-2.18Q436.53-3.17 436.36-4.33L436.36-4.33L436.36-4.33Q436.19-5.49 436.19-6.51L436.19-6.51L436.19-6.51Q436.19-7.76 436.42-9.43L436.42-9.43L436.42-9.43Q436.64-11.10 436.90-12.77L436.90-12.77L436.90-12.77Q437.15-14.44 437.38-15.92L437.38-15.92L437.38-15.92Q437.61-17.39 437.61-18.24L437.61-18.24L437.61-18.24Q437.61-18.97 437.35-19.43L437.35-19.43L437.35-19.43Q437.10-19.88 436.70-20.14L436.70-20.14L436.70-20.14Q436.30-20.39 435.91-20.45L435.91-20.45L435.91-20.45Q435.51-20.50 435.28-20.50L435.28-20.50L435.28-20.50Q434.66-20.50 433.67-20.33L433.67-20.33L433.67-20.33Q432.68-20.16 430.87-20.16L430.87-20.16L430.87-20.16Q430.36-20.16 429.85-20.22L429.85-20.22L429.85-20.22Q429.34-20.28 428.77-20.39L428.77-20.39L428.77-20.39Q428.60-18.18 428.06-16.09L428.06-16.09L428.06-16.09Q427.52-13.99 426.87-12.23L426.87-12.23L426.87-12.23Q426.22-10.48 425.54-9.20L425.54-9.20L425.54-9.20Q424.86-7.93 424.41-7.42L424.41-7.42L424.41-7.42Q423.67-7.42 423.67-8.10L423.67-8.10L423.67-8.10Q423.73-8.44 424.27-9.49L424.27-9.49L424.27-9.49Q424.80-10.54 425.46-12.18L425.46-12.18L425.46-12.18Q426.11-13.82 426.70-16.09L426.70-16.09L426.70-16.09Q427.30-18.35 427.41-21.13L427.41-21.13L427.41-21.13Q424.75-22.66 424.75-26.56L424.75-26.56L424.75-26.56Q424.75-27.64 425.17-28.38L425.17-28.38L425.17-28.38Q425.60-29.11 426.45-29.11L426.45-29.11L426.45-29.11Q427.69-29.11 428.23-27.67L428.23-27.67L428.23-27.67Q428.77-26.22 428.88-23.79L428.88-23.79L428.88-23.79Q429.28-23.68 429.65-23.62L429.65-23.62L429.65-23.62Q430.02-23.56 430.53-23.56L430.53-23.56L430.53-23.56Q432.00-23.56 433.27-23.73L433.27-23.73L433.27-23.73Q434.55-23.90 435.74-23.90ZM427.07-25.26L427.07-25.26L427.07-25.26Q427.07-25.04 427.30-24.81L427.30-24.81L427.30-24.81Q427.24-25.09 427.21-25.38L427.21-25.38L427.21-25.38Q427.18-25.66 427.13-25.83L427.13-25.83L427.13-25.83Q427.07-26.05 427.07-26.22L427.07-26.22L427.07-26.22Q426.90-26.22 426.79-26.05L426.79-26.05L426.79-26.05Q426.67-25.88 427.07-25.26ZM467.29-11.61L467.29-11.61L467.29-11.61Q467.29-12.01 467.31-12.57L467.31-12.57L467.31-12.57Q467.34-13.14 467.34-13.71L467.34-13.71L467.34-13.71Q467.34-14.27 467.37-14.70L467.37-14.70L467.37-14.70Q467.40-15.12 467.40-15.29L467.40-15.29L467.40-15.29Q467.40-15.69 467.26-15.80L467.26-15.80L467.26-15.80Q467.12-15.92 466.95-15.18L466.95-15.18L466.95-15.18Q466.83-14.95 466.49-13.88L466.49-13.88L466.49-13.88Q466.15-12.80 465.53-11.30L465.53-11.30L465.53-11.30Q464.91-9.80 464.03-8.07L464.03-8.07L464.03-8.07Q463.15-6.34 461.96-4.90L461.96-4.90L461.96-4.90Q460.77-3.46 459.30-2.49L459.30-2.49L459.30-2.49Q457.83-1.53 456.07-1.53L456.07-1.53L456.07-1.53Q453.41-1.53 452.30-2.97L452.30-2.97L452.30-2.97Q451.20-4.42 451.20-7.31L451.20-7.31L451.20-7.31Q451.20-8.16 451.37-9.77L451.37-9.77L451.37-9.77Q451.54-11.38 451.77-13.11L451.77-13.11L451.77-13.11Q451.99-14.84 452.16-16.40L452.16-16.40L452.16-16.40Q452.33-17.96 452.33-18.80L452.33-18.80L452.33-18.80Q452.33-21.24 451.09-21.24L451.09-21.24L451.09-21.24Q450.80-21.24 450.58-21.18L450.58-21.18L450.58-21.18Q450.35-21.13 450.24-21.13L450.24-21.13L450.24-21.13Q449.78-21.13 449.78-21.58L449.78-21.58L449.78-21.58Q449.78-21.75 450.26-22.17L450.26-22.17L450.26-22.17Q450.75-22.60 452.33-22.60L452.33-22.60L452.33-22.60Q454.14-22.60 454.85-21.24L454.85-21.24L454.85-21.24Q455.56-19.88 455.56-18.07L455.56-18.07L455.56-18.07Q455.56-17.28 455.42-15.83L455.42-15.83L455.42-15.83Q455.28-14.39 455.11-12.80L455.11-12.80L455.11-12.80Q454.94-11.21 454.80-9.77L454.80-9.77L454.80-9.77Q454.65-8.33 454.65-7.65L454.65-7.65L454.65-7.65Q454.65-5.49 455.36-4.62L455.36-4.62L455.36-4.62Q456.07-3.74 457.32-3.74L457.32-3.74L457.32-3.74Q458.51-3.74 459.67-4.67L459.67-4.67L459.67-4.67Q460.83-5.61 461.82-6.94L461.82-6.94L461.82-6.94Q462.81-8.27 463.55-9.69L463.55-9.69L463.55-9.69Q464.28-11.10 464.74-12.06L464.74-12.06L464.74-12.06Q465.19-13.31 465.53-14.78L465.53-14.78L465.53-14.78Q465.87-16.26 466.18-17.76L466.18-17.76L466.18-17.76Q466.49-19.26 466.72-20.62L466.72-20.62L466.72-20.62Q466.95-21.98 467.17-23.00L467.17-23.00L467.17-23.00Q467.29-23.51 468.25-23.70L468.25-23.70L468.25-23.70Q469.21-23.90 470.17-23.90L470.17-23.90L470.17-23.90Q470.68-23.90 470.68-23.56L470.68-23.56L470.68-23.56Q470.68-22.15 470.63-19.71L470.63-19.71L470.63-19.71Q470.57-17.28 470.57-14.73L470.57-14.73L470.57-14.73Q470.57-8.38 471.33-5.58L471.33-5.58L471.33-5.58Q472.10-2.78 474.37-2.78L474.37-2.78L474.37-2.78Q474.88-2.78 475.24-2.89L475.24-2.89L475.24-2.89Q475.61-3.00 475.89-3.00L475.89-3.00L475.89-3.00Q476.12-3.00 476.12-2.78L476.12-2.78L476.12-2.78Q476.12-2.95 476.12-2.72L476.12-2.72L476.12-2.72Q476.12-2.49 475.87-2.12L475.87-2.12L475.87-2.12Q475.61-1.76 474.90-1.44L474.90-1.44L474.90-1.44Q474.20-1.13 472.78-1.13L472.78-1.13L472.78-1.13Q471.25-1.13 470.26-1.67L470.26-1.67L470.26-1.67Q469.27-2.21 468.64-3.46L468.64-3.46L468.64-3.46Q468.02-4.70 467.71-6.71L467.71-6.71L467.71-6.71Q467.40-8.72 467.29-11.61ZM492.83-25.43L492.83-25.43L492.83-25.43Q493.68-25.43 494.59-25.21L494.59-25.21L494.59-25.21Q495.49-24.98 496.23-24.55L496.23-24.55L496.23-24.55Q496.96-24.13 497.45-23.51L497.45-23.51L497.45-23.51Q497.93-22.88 497.93-22.03L497.93-22.03L497.93-22.03Q497.93-20.22 496.82-18.86L496.82-18.86L496.82-18.86Q495.72-17.50 494.42-16.54L494.42-16.54L494.42-16.54Q492.89-15.46 490.96-14.61L490.96-14.61L490.62-15.18L490.62-15.18Q491.64-15.75 492.43-16.48L492.43-16.48L492.43-16.48Q493.11-17.11 493.68-18.04L493.68-18.04L493.68-18.04Q494.25-18.97 494.25-20.16L494.25-20.16L494.25-20.16Q494.25-21.30 493.23-22.26L493.23-22.26L493.23-22.26Q492.21-23.22 490.39-23.22L490.39-23.22L490.39-23.22Q488.58-23.22 487.14-22.29L487.14-22.29L487.14-22.29Q485.69-21.35 484.67-19.85L484.67-19.85L484.67-19.85Q483.65-18.35 483.09-16.45L483.09-16.45L483.09-16.45Q482.52-14.56 482.52-12.63L482.52-12.63L482.52-12.63Q482.52-10.99 483.00-9.49L483.00-9.49L483.00-9.49Q483.48-7.99 484.45-6.85L484.45-6.85L484.45-6.85Q485.41-5.72 486.94-5.07L486.94-5.07L486.94-5.07Q488.47-4.42 490.62-4.42L490.62-4.42L490.62-4.42Q492.72-4.42 494.30-4.96L494.30-4.96L494.30-4.96Q495.89-5.49 496.96-6.12L496.96-6.12L496.96-6.12Q498.21-6.85 499.12-7.87L499.12-7.87L499.57-7.53L499.57-7.53Q498.44-5.72 496.85-4.30L496.85-4.30L496.85-4.30Q495.44-3.12 493.34-2.12L493.34-2.12L493.34-2.12Q491.24-1.13 488.30-1.13L488.30-1.13L488.30-1.13Q486.71-1.13 485.04-1.67L485.04-1.67L485.04-1.67Q483.37-2.21 482.01-3.31L482.01-3.31L482.01-3.31Q480.65-4.42 479.77-6.15L479.77-6.15L479.77-6.15Q478.90-7.87 478.90-10.20L478.90-10.20L478.90-10.20Q478.90-13.20 479.94-15.97L479.94-15.97L479.94-15.97Q480.99-18.75 482.86-20.84L482.86-20.84L482.86-20.84Q484.73-22.94 487.28-24.19L487.28-24.19L487.28-24.19Q489.83-25.43 492.83-25.43ZM524.15-12.52L524.49-12.29L524.49-12.29Q524.10-11.16 523.25-9.23L523.25-9.23L523.25-9.23Q522.40-7.31 520.95-5.47L520.95-5.47L520.95-5.47Q519.51-3.63 517.44-2.32L517.44-2.32L517.44-2.32Q515.37-1.02 512.65-1.13L512.65-1.13L512.65-1.13Q510.22-1.30 508.58-2.55L508.58-2.55L508.58-2.55Q506.93-3.79 505.91-6.37L505.91-6.37L505.91-6.37Q504.89-8.95 504.44-12.89L504.44-12.89L504.44-12.89Q503.99-16.82 503.99-22.37L503.99-22.37L503.99-22.37Q503.99-27.70 504.27-31.97L504.27-31.97L504.27-31.97Q504.55-36.25 505.01-39.54L505.01-39.54L505.01-39.54Q502.40-39.42 500.45-39.42L500.45-39.42L500.45-39.42Q498.49-39.42 497.70-39.42L497.70-39.42L497.70-39.42Q496.06-39.42 494.44-39.65L494.44-39.65L494.44-39.65Q492.83-39.88 491.41-40.44L491.41-40.44L491.41-40.44Q490.00-41.01 488.81-41.94L488.81-41.94L488.81-41.94Q487.62-42.88 486.83-44.29L486.83-44.29L487.05-44.80L487.05-44.80Q487.11-44.69 487.59-44.26L487.59-44.26L487.59-44.26Q488.07-43.84 489.32-43.39L489.32-43.39L489.32-43.39Q490.56-42.93 492.72-42.57L492.72-42.57L492.72-42.57Q494.87-42.20 498.27-42.20L498.27-42.20L505.35-42.20L505.35-42.20Q506.25-47.29 507.19-49.82L507.19-49.82L507.19-49.82Q508.12-52.34 508.46-53.02L508.46-53.02L508.46-53.02Q508.92-53.98 509.79-54.66L509.79-54.66L509.79-54.66Q510.67-55.34 511.29-55.34L511.29-55.34L511.29-55.34Q512.48-55.34 513.22-53.07L513.22-53.07L513.22-53.07Q513.96-50.81 513.96-46.05L513.96-46.05L513.96-46.05Q513.96-45.20 513.90-44.26L513.90-44.26L513.90-44.26Q513.84-43.33 513.84-42.37L513.84-42.37L513.84-42.37Q516.56-42.42 519.03-42.48L519.03-42.48L519.03-42.48Q521.49-42.54 523.44-42.59L523.44-42.59L523.44-42.59Q525.40-42.65 526.73-42.71L526.73-42.71L526.73-42.71Q528.06-42.76 528.46-42.82L528.46-42.82L528.46-42.82Q528.74-42.82 529.42-42.88L529.42-42.88L529.42-42.88Q530.10-42.93 530.33-42.93L530.33-42.93L530.33-42.93Q531.23-42.93 531.23-42.37L531.23-42.37L531.23-42.37Q531.23-41.57 530.75-40.92L530.75-40.92L530.75-40.92Q530.27-40.27 528.80-40.16L528.80-40.16L528.80-40.16Q528.51-40.10 527.13-40.07L527.13-40.07L527.13-40.07Q525.74-40.04 523.64-39.99L523.64-39.99L523.64-39.99Q521.55-39.93 518.94-39.85L518.94-39.85L518.94-39.85Q516.34-39.76 513.62-39.65L513.62-39.65L513.62-39.65Q513.05-34.83 511.58-29.14L511.58-29.14L511.58-29.14Q510.11-23.45 507.44-16.94L507.44-16.94L507.44-16.94Q507.67-13.20 508.09-10.71L508.09-10.71L508.09-10.71Q508.52-8.21 509.26-6.71L509.26-6.71L509.26-6.71Q509.99-5.21 511.10-4.59L511.10-4.59L511.10-4.59Q512.20-3.96 513.73-3.96L513.73-3.96L513.73-3.96Q515.37-3.96 516.79-4.59L516.79-4.59L516.79-4.59Q518.21-5.21 519.37-6.15L519.37-6.15L519.37-6.15Q520.53-7.08 521.41-8.18L521.41-8.18L521.41-8.18Q522.28-9.29 522.88-10.25L522.88-10.25L522.88-10.25Q523.47-11.21 523.78-11.84L523.78-11.84L523.78-11.84Q524.10-12.46 524.15-12.52L524.15-12.52ZM511.41-39.65L511.41-39.65L511.41-39.65Q510.45-39.65 509.54-39.59L509.54-39.59L509.54-39.59Q508.63-39.54 507.67-39.54L507.67-39.54L507.67-39.54Q507.50-36.31 507.42-32.91L507.42-32.91L507.42-32.91Q507.33-29.51 507.33-26.45L507.33-26.45L507.33-20.05L507.33-20.05Q508.97-25.21 510.02-30.08L510.02-30.08L510.02-30.08Q511.07-34.95 511.41-39.65ZM507.90-42.20L507.90-42.20L507.90-42.20Q508.80-42.20 509.74-42.28L509.74-42.28L509.74-42.28Q510.67-42.37 511.63-42.37L511.63-42.37L511.63-44.29L511.63-44.29Q511.63-47.13 511.46-48.82L511.46-48.82L511.46-48.82Q511.29-50.52 511.10-51.46L511.10-51.46L511.10-51.46Q510.90-52.39 510.64-52.70L510.64-52.70L510.64-52.70Q510.39-53.02 510.22-53.02L510.22-53.02L510.22-53.02Q509.77-53.02 509.43-52.17L509.43-52.17L509.43-52.17Q509.09-51.32 508.80-49.87L508.80-49.87L508.80-49.87Q508.52-48.43 508.29-46.45L508.29-46.45L508.29-46.45Q508.07-44.46 507.90-42.20ZM538.65-11.61L538.65-11.61L538.65-11.61Q538.65-12.01 538.68-12.57L538.68-12.57L538.68-12.57Q538.71-13.14 538.71-13.71L538.71-13.71L538.71-13.71Q538.71-14.27 538.74-14.70L538.74-14.70L538.74-14.70Q538.77-15.12 538.77-15.29L538.77-15.29L538.77-15.29Q538.77-15.69 538.62-15.80L538.62-15.80L538.62-15.80Q538.48-15.92 538.31-15.18L538.31-15.18L538.31-15.18Q538.20-14.95 537.86-13.88L537.86-13.88L537.86-13.88Q537.52-12.80 536.90-11.30L536.90-11.30L536.90-11.30Q536.27-9.80 535.40-8.07L535.40-8.07L535.40-8.07Q534.52-6.34 533.33-4.90L533.33-4.90L533.33-4.90Q532.14-3.46 530.67-2.49L530.67-2.49L530.67-2.49Q529.19-1.53 527.44-1.53L527.44-1.53L527.44-1.53Q524.78-1.53 523.67-2.97L523.67-2.97L523.67-2.97Q522.57-4.42 522.57-7.31L522.57-7.31L522.57-7.31Q522.57-8.16 522.74-9.77L522.74-9.77L522.74-9.77Q522.91-11.38 523.13-13.11L523.13-13.11L523.13-13.11Q523.36-14.84 523.53-16.40L523.53-16.40L523.53-16.40Q523.70-17.96 523.70-18.80L523.70-18.80L523.70-18.80Q523.70-21.24 522.45-21.24L522.45-21.24L522.45-21.24Q522.17-21.24 521.94-21.18L521.94-21.18L521.94-21.18Q521.72-21.13 521.60-21.13L521.60-21.13L521.60-21.13Q521.15-21.13 521.15-21.58L521.15-21.58L521.15-21.58Q521.15-21.75 521.63-22.17L521.63-22.17L521.63-22.17Q522.11-22.60 523.70-22.60L523.70-22.60L523.70-22.60Q525.51-22.60 526.22-21.24L526.22-21.24L526.22-21.24Q526.93-19.88 526.93-18.07L526.93-18.07L526.93-18.07Q526.93-17.28 526.79-15.83L526.79-15.83L526.79-15.83Q526.64-14.39 526.47-12.80L526.47-12.80L526.47-12.80Q526.30-11.21 526.16-9.77L526.16-9.77L526.16-9.77Q526.02-8.33 526.02-7.65L526.02-7.65L526.02-7.65Q526.02-5.49 526.73-4.62L526.73-4.62L526.73-4.62Q527.44-3.74 528.68-3.74L528.68-3.74L528.68-3.74Q529.87-3.74 531.03-4.67L531.03-4.67L531.03-4.67Q532.20-5.61 533.19-6.94L533.19-6.94L533.19-6.94Q534.18-8.27 534.91-9.69L534.91-9.69L534.91-9.69Q535.65-11.10 536.10-12.06L536.10-12.06L536.10-12.06Q536.56-13.31 536.90-14.78L536.90-14.78L536.90-14.78Q537.24-16.26 537.55-17.76L537.55-17.76L537.55-17.76Q537.86-19.26 538.09-20.62L538.09-20.62L538.09-20.62Q538.31-21.98 538.54-23.00L538.54-23.00L538.54-23.00Q538.65-23.51 539.62-23.70L539.62-23.70L539.62-23.70Q540.58-23.90 541.54-23.90L541.54-23.90L541.54-23.90Q542.05-23.90 542.05-23.56L542.05-23.56L542.05-23.56Q542.05-22.15 541.99-19.71L541.99-19.71L541.99-19.71Q541.94-17.28 541.94-14.73L541.94-14.73L541.94-14.73Q541.94-8.38 542.70-5.58L542.70-5.58L542.70-5.58Q543.47-2.78 545.73-2.78L545.73-2.78L545.73-2.78Q546.24-2.78 546.61-2.89L546.61-2.89L546.61-2.89Q546.98-3.00 547.26-3.00L547.26-3.00L547.26-3.00Q547.49-3.00 547.49-2.78L547.49-2.78L547.49-2.78Q547.49-2.95 547.49-2.72L547.49-2.72L547.49-2.72Q547.49-2.49 547.23-2.12L547.23-2.12L547.23-2.12Q546.98-1.76 546.27-1.44L546.27-1.44L546.27-1.44Q545.56-1.13 544.15-1.13L544.15-1.13L544.15-1.13Q542.62-1.13 541.63-1.67L541.63-1.67L541.63-1.67Q540.63-2.21 540.01-3.46L540.01-3.46L540.01-3.46Q539.39-4.70 539.08-6.71L539.08-6.71L539.08-6.71Q538.77-8.72 538.65-11.61ZM561.76-23.90L561.76-23.90L561.76-23.90Q563.18-23.90 564.03-23.31L564.03-23.31L564.03-23.31Q564.88-22.71 565.30-21.89L565.30-21.89L565.30-21.89Q565.73-21.07 565.84-20.22L565.84-20.22L565.84-20.22Q565.95-19.37 565.95-18.80L565.95-18.80L565.95-18.80Q565.95-18.13 565.78-16.65L565.78-16.65L565.78-16.65Q565.61-15.18 565.44-13.59L565.44-13.59L565.44-13.59Q565.27-12.01 565.10-10.65L565.10-10.65L565.10-10.65Q564.93-9.29 564.93-8.84L564.93-8.84L564.93-8.84Q564.93-7.70 565.10-6.77L565.10-6.77L565.10-6.77Q565.27-5.83 565.73-5.10L565.73-5.10L565.73-5.10Q566.18-4.36 566.97-3.96L566.97-3.96L566.97-3.96Q567.77-3.57 569.07-3.57L569.07-3.57L569.07-3.57Q571.45-3.57 574.05-5.95L574.05-5.95L574.05-5.95Q576.66-8.33 578.92-12.52L578.92-12.52L579.26-12.29L579.26-12.29Q578.64-10.20 577.34-8.01L577.34-8.01L577.34-8.01Q576.04-5.83 574.34-4.02L574.34-4.02L574.34-4.02Q572.64-2.21 570.71-1.05L570.71-1.05L570.71-1.05Q568.79 0.11 566.97 0.11L566.97 0.11L566.97 0.11Q565.44 0.11 564.51-0.54L564.51-0.54L564.51-0.54Q563.57-1.19 563.06-2.18L563.06-2.18L563.06-2.18Q562.55-3.17 562.38-4.33L562.38-4.33L562.38-4.33Q562.21-5.49 562.21-6.51L562.21-6.51L562.21-6.51Q562.21-7.76 562.44-9.43L562.44-9.43L562.44-9.43Q562.67-11.10 562.92-12.77L562.92-12.77L562.92-12.77Q563.18-14.44 563.40-15.92L563.40-15.92L563.40-15.92Q563.63-17.39 563.63-18.24L563.63-18.24L563.63-18.24Q563.63-18.97 563.38-19.43L563.38-19.43L563.38-19.43Q563.12-19.88 562.72-20.14L562.72-20.14L562.72-20.14Q562.33-20.39 561.93-20.45L561.93-20.45L561.93-20.45Q561.54-20.50 561.31-20.50L561.31-20.50L561.31-20.50Q560.69-20.50 559.69-20.33L559.69-20.33L559.69-20.33Q558.70-20.16 556.89-20.16L556.89-20.16L556.89-20.16Q556.38-20.16 555.87-20.22L555.87-20.22L555.87-20.22Q555.36-20.28 554.79-20.39L554.79-20.39L554.79-20.39Q554.63-18.18 554.09-16.09L554.09-16.09L554.09-16.09Q553.55-13.99 552.90-12.23L552.90-12.23L552.90-12.23Q552.25-10.48 551.57-9.20L551.57-9.20L551.57-9.20Q550.89-7.93 550.43-7.42L550.43-7.42L550.43-7.42Q549.70-7.42 549.70-8.10L549.70-8.10L549.70-8.10Q549.75-8.44 550.29-9.49L550.29-9.49L550.29-9.49Q550.83-10.54 551.48-12.18L551.48-12.18L551.48-12.18Q552.13-13.82 552.73-16.09L552.73-16.09L552.73-16.09Q553.32-18.35 553.44-21.13L553.44-21.13L553.44-21.13Q550.77-22.66 550.77-26.56L550.77-26.56L550.77-26.56Q550.77-27.64 551.20-28.38L551.20-28.38L551.20-28.38Q551.62-29.11 552.47-29.11L552.47-29.11L552.47-29.11Q553.72-29.11 554.26-27.67L554.26-27.67L554.26-27.67Q554.79-26.22 554.91-23.79L554.91-23.79L554.91-23.79Q555.30-23.68 555.67-23.62L555.67-23.62L555.67-23.62Q556.04-23.56 556.55-23.56L556.55-23.56L556.55-23.56Q558.02-23.56 559.30-23.73L559.30-23.73L559.30-23.73Q560.57-23.90 561.76-23.90ZM553.10-25.26L553.10-25.26L553.10-25.26Q553.10-25.04 553.32-24.81L553.32-24.81L553.32-24.81Q553.27-25.09 553.24-25.38L553.24-25.38L553.24-25.38Q553.21-25.66 553.15-25.83L553.15-25.83L553.15-25.83Q553.10-26.05 553.10-26.22L553.10-26.22L553.10-26.22Q552.93-26.22 552.81-26.05L552.81-26.05L552.81-26.05Q552.70-25.88 553.10-25.26ZM593.76-27.98L593.76-27.98L593.76-27.98Q594.50-27.81 594.50-27.02L594.50-27.02L594.50-27.02Q594.50-26.79 594.36-26.42L594.36-26.42L594.36-26.42Q594.22-26.05 594.02-25.69L594.02-25.69L594.02-25.69Q593.82-25.32 593.59-25.06L593.59-25.06L593.59-25.06Q593.37-24.81 593.20-24.81L593.20-24.81L593.20-24.81Q592.91-24.81 592.52-25.01L592.52-25.01L592.52-25.01Q592.12-25.21 591.38-25.46L591.38-25.46L591.38-25.46Q590.65-25.71 589.46-25.91L589.46-25.91L589.46-25.91Q588.27-26.11 586.34-26.11L586.34-26.11L586.34-26.11Q583.63-26.11 581.81-25.09L581.81-25.09L581.81-25.09Q580-24.07 580-22.26L580-22.26L580-22.26Q580-20.96 581.10-20.08L581.10-20.08L581.10-20.08Q582.21-19.20 583.71-18.69L583.71-18.69L583.71-18.69Q585.21-18.18 586.77-17.96L586.77-17.96L586.77-17.96Q588.33-17.73 589.18-17.73L589.18-17.73L589.18-17.73Q589.80-17.73 590.00-17.53L590.00-17.53L590.00-17.53Q590.20-17.33 590.20-17.16L590.20-17.16L590.20-17.16Q590.20-16.71 589.83-16.62L589.83-16.62L589.83-16.62Q589.46-16.54 588.89-16.37L588.89-16.37L588.89-16.37Q587.42-15.86 585.89-15.09L585.89-15.09L585.89-15.09Q584.36-14.33 583.09-13.28L583.09-13.28L583.09-13.28Q581.81-12.23 581.02-10.93L581.02-10.93L581.02-10.93Q580.23-9.63 580.23-8.10L580.23-8.10L580.23-8.10Q580.23-5.55 582.29-3.88L582.29-3.88L582.29-3.88Q584.36-2.21 588.10-2.21L588.10-2.21L588.10-2.21Q592.35-2.21 595.18-3.48L595.18-3.48L595.18-3.48Q598.01-4.76 599.85-6.46L599.85-6.46L599.85-6.46Q601.69-8.16 602.71-9.88L602.71-9.88L602.71-9.88Q603.73-11.61 604.24-12.52L604.24-12.52L604.58-12.29L604.58-12.29Q603.62-9.52 602.12-7.14L602.12-7.14L602.12-7.14Q600.62-4.76 598.49-3.03L598.49-3.03L598.49-3.03Q596.37-1.30 593.54-0.31L593.54-0.31L593.54-0.31Q590.71 0.68 587.08 0.68L587.08 0.68L587.08 0.68Q584.87 0.68 583.00 0.14L583.00 0.14L583.00 0.14Q581.13-0.40 579.77-1.36L579.77-1.36L579.77-1.36Q578.41-2.32 577.68-3.74L577.68-3.74L577.68-3.74Q576.94-5.15 576.94-6.97L576.94-6.97L576.94-6.97Q576.94-9.06 577.90-10.59L577.90-10.59L577.90-10.59Q578.87-12.12 580.11-13.11L580.11-13.11L580.11-13.11Q581.36-14.10 582.58-14.64L582.58-14.64L582.58-14.64Q583.79-15.18 584.30-15.41L584.30-15.41L584.30-15.41Q582.55-15.69 581.19-16.37L581.19-16.37L581.19-16.37Q580.06-16.99 579.09-18.10L579.09-18.10L579.09-18.10Q578.13-19.20 578.13-21.13L578.13-21.13L578.13-21.13Q578.13-22.88 578.98-24.33L578.98-24.33L578.98-24.33Q579.83-25.77 581.27-26.73L581.27-26.73L581.27-26.73Q582.72-27.70 584.62-28.24L584.62-28.24L584.62-28.24Q586.51-28.77 588.67-28.77L588.67-28.77L588.67-28.77Q589.91-28.77 591.19-28.60L591.19-28.60L591.19-28.60Q592.46-28.43 593.76-27.98Z" fill="url(#editing-sticker-gradient)" stroke="#c76494" stroke-width="3"></path></g></g><style>text {
  font-size: 64px;
  font-family: Arial Black;
  dominant-baseline: central;
  text-anchor: middle;
}</style></svg>
